<svg width="35" height="35" viewBox="0 0 35 35" fill="none" xmlns="http://www.w3.org/2000/svg">
<path d="M27.0518 24.6947L34.1902 31.8313L31.8318 34.1897L24.6952 27.0513C22.0397 29.18 18.7368 30.3379 15.3335 30.333C7.0535 30.333 0.333496 23.613 0.333496 15.333C0.333496 7.05301 7.0535 0.333008 15.3335 0.333008C23.6135 0.333008 30.3335 7.05301 30.3335 15.333C30.3383 18.7363 29.1805 22.0392 27.0518 24.6947ZM23.7085 23.458C25.8237 21.2828 27.0049 18.3671 27.0002 15.333C27.0002 8.88634 21.7785 3.66634 15.3335 3.66634C8.88683 3.66634 3.66683 8.88634 3.66683 15.333C3.66683 21.778 8.88683 26.9997 15.3335 26.9997C18.3675 27.0045 21.2833 25.8232 23.4585 23.708L23.7085 23.458Z" fill="white"/>
</svg>
