<svg width="24" height="25" viewBox="0 0 24 25" fill="none" xmlns="http://www.w3.org/2000/svg">
<path d="M13.3102 20.9002C11.9879 21.1067 10.6355 20.9981 9.36308 20.5832C8.09069 20.1683 6.93425 19.4588 5.98791 18.5124C5.04156 17.5661 4.33205 16.4096 3.91713 15.1372C3.50221 13.8648 3.39361 12.5125 3.60016 11.1902C3.07889 10.1987 2.88841 9.06644 3.05657 7.95897C3.22472 6.8515 3.74269 5.82684 4.53477 5.03477C5.32684 4.24269 6.3515 3.72472 7.45897 3.55657C8.56644 3.38841 9.69867 3.57889 10.6902 4.10016C12.0125 3.89361 13.3648 4.00221 14.6372 4.41713C15.9096 4.83205 17.0661 5.54156 18.0124 6.48791C18.9588 7.43425 19.6683 8.59069 20.0832 9.86308C20.4981 11.1355 20.6067 12.4879 20.4002 13.8102C20.9214 14.8016 21.1119 15.9339 20.9437 17.0413C20.7756 18.1488 20.2576 19.1735 19.4655 19.9655C18.6735 20.7576 17.6488 21.2756 16.5413 21.4437C15.4339 21.6119 14.3016 21.4214 13.3102 20.9002ZM12.0522 17.6562H12.0122C14.8842 17.6562 16.3152 16.2702 16.3152 14.4132C16.3152 13.2152 15.7642 11.9422 13.5892 11.4552L11.6062 11.0152C10.8512 10.8432 9.98416 10.6152 9.98416 9.90016C9.98416 9.18516 10.6042 8.68716 11.7082 8.68716C13.9382 8.68716 13.7352 10.2152 14.8392 10.2152C15.4152 10.2152 15.9322 9.87316 15.9322 9.28516C15.9322 7.91516 13.7352 6.88516 11.8762 6.88516C9.85516 6.88516 7.70316 7.74416 7.70316 10.0292C7.70316 11.1272 8.09716 12.2992 10.2632 12.8422L12.9522 13.5132C13.7682 13.7152 13.9702 14.1722 13.9702 14.5852C13.9702 15.2722 13.2862 15.9432 12.0522 15.9432C9.63516 15.9432 9.97416 14.0862 8.67816 14.0862C8.09816 14.0862 7.67516 14.4842 7.67516 15.0572C7.67516 16.1712 9.02716 17.6552 12.0522 17.6552V17.6562Z" fill="#FF5300"/>
</svg>
