<svg width="30" height="30" viewBox="0 0 30 30" fill="none" xmlns="http://www.w3.org/2000/svg">
<g clip-path="url(#clip0_41451_706)">
<path d="M2.5 14.9996C2.5 13.9184 2.6375 12.8709 2.895 11.8696C3.58558 11.906 4.27275 11.7506 4.88055 11.4207C5.48835 11.0909 5.9931 10.5994 6.33901 10.0006C6.68492 9.40177 6.85851 8.71898 6.84059 8.02768C6.82268 7.33637 6.61396 6.66349 6.2375 6.0834C7.74868 4.59661 9.61349 3.51902 11.6562 2.95215C11.97 3.56899 12.4483 4.08698 13.0382 4.44879C13.6282 4.81059 14.3067 5.00209 14.9987 5.00209C15.6908 5.00209 16.3693 4.81059 16.9593 4.44879C17.5492 4.08698 18.0275 3.56899 18.3413 2.95215C20.384 3.51902 22.2488 4.59661 23.76 6.0834C23.3831 6.66359 23.1741 7.33674 23.156 8.02835C23.138 8.71997 23.3116 9.4031 23.6577 10.0022C24.0038 10.6012 24.5089 11.0929 25.1171 11.4227C25.7253 11.7525 26.4129 11.9076 27.1038 11.8709C27.3612 12.8709 27.4988 13.9184 27.4988 14.9996C27.4988 16.0809 27.3612 17.1284 27.1038 18.1296C26.4131 18.0931 25.7257 18.2483 25.1177 18.578C24.5098 18.9078 24.0048 19.3993 23.6588 19.9981C23.3127 20.597 23.139 21.2799 23.1569 21.9713C23.1747 22.6627 23.3835 23.3357 23.76 23.9159C22.2488 25.4027 20.384 26.4803 18.3413 27.0471C18.0275 26.4303 17.5492 25.9123 16.9593 25.5505C16.3693 25.1887 15.6908 24.9972 14.9987 24.9972C14.3067 24.9972 13.6282 25.1887 13.0382 25.5505C12.4483 25.9123 11.97 26.4303 11.6562 27.0471C9.61349 26.4803 7.74868 25.4027 6.2375 23.9159C6.61438 23.3357 6.82341 22.6626 6.84146 21.9709C6.85951 21.2793 6.68587 20.5962 6.33976 19.9971C5.99366 19.3981 5.48857 18.9064 4.88038 18.5766C4.2722 18.2468 3.58463 18.0917 2.89375 18.1284C2.6375 17.1296 2.5 16.0821 2.5 14.9996ZM8.505 18.7496C9.2925 20.1134 9.5175 21.6821 9.21 23.1546C9.72 23.5171 10.2625 23.8309 10.8313 24.0921C11.9771 23.0657 13.4616 22.4986 15 22.4996C16.575 22.4996 18.0475 23.0884 19.1688 24.0921C19.7375 23.8309 20.28 23.5171 20.79 23.1546C20.4743 21.6496 20.7253 20.081 21.495 18.7496C22.2633 17.4176 23.4963 16.4161 24.9575 15.9371C25.0153 15.3135 25.0153 14.6858 24.9575 14.0621C23.4958 13.5835 22.2623 12.5819 21.4937 11.2496C20.7241 9.91831 20.473 8.34969 20.7887 6.84465C20.2789 6.48205 19.7361 6.16817 19.1675 5.90715C18.022 6.93331 16.5379 7.50041 15 7.49965C13.4616 7.50072 11.9771 6.9336 10.8313 5.90715C10.2627 6.16818 9.71986 6.48206 9.21 6.84465C9.52571 8.34969 9.27466 9.91831 8.505 11.2496C7.73671 12.5817 6.50373 13.5832 5.0425 14.0621C4.98469 14.6858 4.98469 15.3135 5.0425 15.9371C6.50419 16.4158 7.73766 17.4174 8.50625 18.7496H8.505ZM15 18.7496C14.0054 18.7496 13.0516 18.3546 12.3483 17.6513C11.6451 16.948 11.25 15.9942 11.25 14.9996C11.25 14.0051 11.6451 13.0513 12.3483 12.348C13.0516 11.6447 14.0054 11.2496 15 11.2496C15.9946 11.2496 16.9484 11.6447 17.6517 12.348C18.3549 13.0513 18.75 14.0051 18.75 14.9996C18.75 15.9942 18.3549 16.948 17.6517 17.6513C16.9484 18.3546 15.9946 18.7496 15 18.7496ZM15 16.2496C15.3315 16.2496 15.6495 16.118 15.8839 15.8835C16.1183 15.6491 16.25 15.3312 16.25 14.9996C16.25 14.6681 16.1183 14.3502 15.8839 14.1158C15.6495 13.8813 15.3315 13.7496 15 13.7496C14.6685 13.7496 14.3505 13.8813 14.1161 14.1158C13.8817 14.3502 13.75 14.6681 13.75 14.9996C13.75 15.3312 13.8817 15.6491 14.1161 15.8835C14.3505 16.118 14.6685 16.2496 15 16.2496Z" fill="white"/>
</g>
<defs>
<clipPath id="clip0_41451_706">
<rect width="30" height="30" fill="white"/>
</clipPath>
</defs>
</svg>
